<?xml version="1.0" encoding="UTF-8"?>
<svg xmlns="http://www.w3.org/2000/svg" viewBox="0 0 170 174" role="img" aria-labelledby="logo-title" fill="none">
<title id="logo-title">seedu logo</title>
<path d="M0 0 C1.56077271 -0.02090698 1.56077271 -0.02090698 3.15307617 -0.04223633 C24.64873225 0.0880814 43.36150294 9.68641016 58.75 24.125 C69.64198296 35.55441633 79.74270576 52.19909453 79.4375 68.375 C70.9280142 68.88790689 62.42509172 69.27701922 53.90391254 69.51486778 C49.94491345 69.62913333 45.99656115 69.78343472 42.04370117 70.03466797 C16.47731824 71.61905175 16.47731824 71.61905175 9.68011475 66.1607666 C5.4069563 61.03279409 -0.5625 52.4000165 -0.5625 45.375 C22.2075 44.88 22.2075 44.88 45.4375 44.375 C31.67306884 30.61056884 16.94324806 23.11118553 -2.68920898 22.9855957 C-13.67615963 23.18510389 -23.63204859 26.99610613 -32.5625 33.375 C-31.07299514 37.42903138 -29.12782871 41.00075247 -26.9296875 44.71484375 C-26.57415802 45.31825089 -26.21862854 45.92165802 -25.85232544 46.54335022 C-24.71733134 48.46836007 -23.57765585 50.39054374 -22.4375 52.3125 C-21.69496868 53.56815612 -20.95277842 54.82401399 -20.2109375 56.08007812 C-19.84425461 56.70046967 -19.47757172 57.32086121 -19.09977722 57.96005249 C-18.36179823 59.21254377 -17.62653171 60.46663725 -16.89399719 61.72232056 C-15.02509704 64.92317864 -13.12063211 68.08917326 -11.13354492 71.21826172 C-10.37157506 72.45409726 -9.60961191 73.68993695 -8.84765625 74.92578125 C-8.15551025 76.01673096 -7.46336426 77.10768066 -6.75024414 78.23168945 C-5.5625 81.375 -5.5625 81.375 -6.48583984 84.68408203 C-7.75996429 86.97006699 -8.97932456 89.05989327 -10.56640625 91.12890625 C-14.35335794 96.34189596 -17.39713033 101.95904104 -20.5625 107.5625 C-28.43013 121.24489769 -36.48497831 134.81578784 -44.5625 148.375 C-54.06331825 146.38476934 -62.36270099 135.08094258 -67.62890625 127.3359375 C-76.99385091 112.60727683 -81.10908288 98.54380956 -80.875 81.0625 C-80.87822266 79.83982422 -80.88144531 78.61714844 -80.88476562 77.35742188 C-80.848791 71.33657844 -80.66403769 66.0432909 -78.5625 60.375 C-72.59666887 67.57376956 -67.79422603 75.64582089 -63.75 84.0625 C-59.66083634 92.52558801 -54.54172503 100.41568353 -49.5625 108.375 C-45.46697871 103.62860124 -42.32065787 98.36960016 -39.125 93 C-38.25584961 91.61941406 -38.25584961 91.61941406 -37.36914062 90.2109375 C-34.00828227 84.77130957 -34.00828227 84.77130957 -34.484375 78.6328125 C-35.17015625 77.55773437 -35.8559375 76.48265625 -36.5625 75.375 C-37.12324219 74.30765625 -37.68398438 73.2403125 -38.26171875 72.140625 C-38.92006283 70.96626328 -39.58312902 69.79454071 -40.25 68.625 C-40.61867187 67.97176758 -40.98734375 67.31853516 -41.3671875 66.64550781 C-44.07603943 61.88365375 -46.86605088 57.1715835 -49.67578125 52.46875 C-50.03548508 51.86577087 -50.3951889 51.26279175 -50.76579285 50.64154053 C-52.5835976 47.59545242 -54.4072834 44.55315846 -56.2409668 41.51660156 C-56.91426025 40.3922168 -57.58755371 39.26783203 -58.28125 38.109375 C-58.88904297 37.10100586 -59.49683594 36.09263672 -60.12304688 35.05371094 C-61.37080752 32.73172487 -62.29866196 30.98816842 -62.5625 28.375 C-53.82513728 16.44333263 -39.30832775 8.0237879 -25.5625 3.375 C-24.65242188 3.05660156 -23.74234375 2.73820313 -22.8046875 2.41015625 C-15.25700297 0.22635952 -7.81685062 0.06727264 0 0 Z " fill="#FCFCFC" transform="translate(84.5625,6.625)"/>
<path d="M0 0 C2.16866448 0.03500809 4.3306383 0.12723088 6.49746609 0.22157669 C8.01196958 0.24398463 9.52656061 0.26105377 11.04118252 0.27302933 C15.01051834 0.31865438 18.97450607 0.43631283 22.94174099 0.56947708 C26.99668918 0.69268391 31.05251018 0.74713271 35.10879421 0.80751419 C43.05459685 0.93586212 50.99606784 1.14038679 58.93887234 1.39345169 C58.4640117 3.31818956 57.9874472 5.24250712 57.5101614 7.16664505 C57.24495693 8.23829407 56.97975246 9.30994308 56.7065115 10.41406631 C52.0595569 28.44997341 41.45247393 42.91890171 26.93887234 54.39345169 C26.3110989 54.89360794 25.68332546 55.39376419 25.03652859 55.90907669 C20.19733458 59.43862318 14.99623206 61.8336256 9.50137234 64.14345169 C8.80987087 64.43735794 8.11836941 64.73126419 7.40591335 65.03407669 C-1.75200167 68.73450395 -10.61091198 69.73613467 -20.43612766 69.64345169 C-21.44183811 69.63885941 -22.44754856 69.63426712 -23.48373508 69.62953568 C-39.99215772 69.42793666 -39.99215772 69.42793666 -46.06112766 66.39345169 C-44.47067646 62.03011959 -42.31936844 58.14558784 -39.99862766 54.14345169 C-39.63446751 53.50665482 -39.27030735 52.86985794 -38.89511204 52.21376419 C-36.20187014 47.53419417 -36.20187014 47.53419417 -35.06112766 46.39345169 C-33.66184431 46.35495309 -32.26065402 46.38175618 -30.86190891 46.43642044 C-11.14238957 46.98423542 5.05965789 43.17630297 19.93887234 29.39345169 C21.25887234 27.74345169 22.57887234 26.09345169 23.93887234 24.39345169 C8.75887234 24.39345169 -6.42112766 24.39345169 -22.06112766 24.39345169 C-20.08112766 20.76345169 -18.10112766 17.13345169 -16.06112766 13.39345169 C-15.54295979 12.18630508 -15.02479191 10.97915848 -14.49092197 9.73543167 C-11.16616235 2.35858436 -8.17748481 0.12582565 0 0 Z " fill="#FBFBFB" transform="translate(106.06112766265869,99.60654830932617)"/>
</svg>
